<?xml version="1.0" encoding="utf-8"?>
<!-- Generator: Adobe Illustrator 24.2.3, SVG Export Plug-In . SVG Version: 6.00 Build 0)  -->
<svg version="1.1" id="katman_1" xmlns="http://www.w3.org/2000/svg" xmlns:xlink="http://www.w3.org/1999/xlink" x="0px" y="0px"
	 viewBox="0 0 376.1 376.1" style="enable-background:new 0 0 376.1 376.1;" xml:space="preserve">
<style type="text/css">
	.st0{fill:#EB9FEF;}
	.st1{fill:#FFFFFF;}
</style>
<g>
	<path class="st0" d="M359.1,185.6c0,90.8-73.7,164.4-164.4,164.4S30.2,276.4,30.2,185.6S103.9,21.2,194.6,21.2
		S359.1,94.8,359.1,185.6z"/>
	<path class="st1" d="M111.4,191.2l0.7-1l42.8-66.8c0.7-1,2-1,2.6,0.3c7.2,16.1,13.2,35.8,10.5,48.3c-1.3,5.3-4.6,12.2-8.6,18.4
		c-0.3,1-1,2-1.6,2.6c-0.3,0.3-0.7,0.7-1.3,0.7h-44.1C111.4,193.5,110.8,192.2,111.4,191.2z"/>
	<path class="st1" d="M301.9,203.7v10.5c0,0.7-0.3,1-1,1.3c-3.3,1.3-14.8,6.6-19.4,13.2c-12.2,16.8-21.4,40.8-41.8,40.8h-85.8
		c-30.3,0-54.9-24.7-54.9-55.3v-1c0-0.7,0.7-1.3,1.3-1.3h48.3c1,0,1.6,1,1.6,1.6c-0.3,3,0.3,6.2,1.6,9.2c3,5.9,8.9,9.2,15.1,9.2
		h23.7v-18.4h-23.3c-1.3,0-2-1.3-1.3-2.3c0.3-0.3,0.7-0.7,1-1.3c2.3-3.3,5.3-7.9,8.6-13.5c2.3-3.6,4.3-7.9,5.9-11.8
		c0.3-0.7,0.7-1.3,1-2.3c0.3-1.3,1-2.6,1.3-3.6c0.3-1,0.7-2,1-3c0.7-3.3,1-6.9,1-10.9c0-1.3,0-3-0.3-4.6c0-1.6-0.3-3.3-0.3-4.9
		c0-1.3-0.3-3-0.7-4.3c-0.3-2.3-0.7-4.3-1.3-6.6l-0.3-0.7c-0.3-1.3-0.7-3-1.3-4.3c-1.3-4.6-3-9.2-4.6-13.2c-0.7-1.6-1.3-3.3-2-4.9
		c-1-2.3-2-4.6-3-6.6c-0.3-1-1-1.6-1.3-2.6c-0.3-1-1-2-1.3-3c-0.3-0.7-0.7-1.3-1-2l-3-5.3c-0.3-0.7,0.3-1.6,1-1.3l18.1,4.9l0,0l0,0
		l2.3,0.7l2.6,0.7l1,0.3V96.5c0-5.3,4.3-9.5,9.2-9.5c2.6,0,4.9,1,6.6,2.6c1.6,1.6,2.6,3.9,2.6,6.6v15.8l2,0.7c0,0,0.3,0,0.3,0.3
		c0.3,0.3,1,1,2,1.6c0.7,0.7,1.3,1.3,2.3,2c1.6,1.3,3.9,3.3,6.2,5.3c0.7,0.7,1.3,1,1.6,1.6c3,2.6,6.2,5.9,9.5,9.5c1,1,1.6,2,2.6,3
		c1,1,1.6,2.3,2.6,3.3c1,1.3,2.3,3,3.3,4.3c0.3,0.7,1,1.3,1.3,2.3c1.3,2,2.3,3.9,3.6,5.9c0.3,1,1,2,1.3,3c1.3,2.6,2.3,5.3,2.6,8.2
		c0.3,0.7,0.3,1.3,0.3,1.6l0,0c0.3,0.7,0.3,1.6,0.3,2.6c0.3,3,0,5.6-0.3,8.6c-0.3,1.3-0.7,2.3-1,3.6c-0.3,1-0.7,2.3-1.3,3.6
		c-1,2.3-2.3,4.6-3.6,6.9c-0.3,0.7-1,1.6-1.6,2.6c-0.7,1-1.3,1.6-1.6,2.6c-0.7,1-1.6,2-2.3,3c-0.7,1-1.3,2-2.3,3
		c-1,1.3-2.3,2.6-3.3,3.9c-0.7,0.7-1.3,1.6-2.3,2.3c-0.7,0.7-1.3,1.6-2.3,2.3c-1,1-2,2-3,2.6l-2,1.6c-0.3,0.3-0.7,0.3-1,0.3h-14.5
		v18.4h18.1c3.9,0,7.9-1.3,10.9-3.9c1-1,5.6-4.9,11.2-10.9c0.3-0.3,0.3-0.3,0.7-0.3l50-14.5C301.2,202,301.9,202.7,301.9,203.7z"/>
</g>
</svg>
